# xmcd CD database file
#
# Track frame offsets:
#	150
#	29442
#	57727
#	88475
#	115240
#	159750
#	184697
#	213020
#	250272
#
# Disc length: 3660 seconds
#
# Revision: 0
# Processed by: cddbd v1.5PL3 Copyright (c) Steve Scherf et al.
# Submitted via: CDex 1.51
#
DISCID=780e4a09
DTITLE=Art Blakey and The Jazzmessengers '90 - Chippin' in
DYEAR=1900
DGENRE=Jazz
TTITLE0=brain stormin'
TTITLE1=byrd flight
TTITLE2=hammer head
TTITLE3=kay pea
TTITLE4=chippin' in
TTITLE5=raincheck
TTITLE6=chandek's den
TTITLE7=lave walked in
TTITLE8=aquarius rising
EXTD=
EXTT0=
EXTT1=
EXTT2=
EXTT3=
EXTT4=
EXTT5=
EXTT6=
EXTT7=
EXTT8=
PLAYORDER=
